<svg width="107" height="46" viewBox="0 0 107 46" fill="none" xmlns="http://www.w3.org/2000/svg">
<path d="M0 8.75641C3.22452 8.55488 10.0967 8.27281 11.79 8.75641C13.9062 9.36103 19.6498 13.2914 19.9521 20.8492C20.2545 28.407 16.9292 34.1509 8.16211 34.1509L7.86035 43.523H2.11621L0 8.75641ZM11.4893 19.3384C10.2804 17.8273 7.86304 17.9019 7.55957 18.1285C6.35032 19.0354 6.63212 24.2453 7.55957 24.4771C8.76857 24.7793 9.67526 24.6584 10.582 24.4771C12.0935 24.1748 12.6983 20.8501 11.4893 19.3384Z" fill="white"/>
<path d="M19.0524 8.73356C24.298 8.63264 32.2499 8.52333 34.7672 9.36247C36.8146 10.0451 42.6275 13.8881 42.6275 21.1525C42.6274 29.3146 37.4883 30.5239 37.7906 31.4308C37.9837 32.0092 40.9952 37.0896 43.3854 41.0705C44.1127 42.2819 43.2407 43.8253 41.8277 43.8254H34.1627C32.8051 41.0304 29.6121 36.0209 28.3453 34.0617C28.0137 33.5489 27.4792 33.4377 27.3111 34.0246C26.7958 35.8259 26.6276 40.3403 26.607 43.2228C26.6046 43.5565 26.3343 43.8251 26.0006 43.8254H19.9234C19.2678 43.8254 18.7314 43.3031 18.7145 42.6476L17.8688 9.9738C17.8514 9.30324 18.3817 8.74647 19.0524 8.73356ZM26.982 17.8283C26.4394 17.8283 25.9996 18.2681 25.9996 18.8107V22.8918C25.9997 23.4343 26.4395 23.8742 26.982 23.8742H30.8365C32.5062 23.8742 33.86 22.5204 33.86 20.8508C33.8599 19.1812 32.5061 17.8283 30.8365 17.8283H26.982Z" fill="white"/>
<path d="M43.5326 42.617V16.7296C43.5326 16.288 43.7732 15.8816 44.1604 15.6693L50.2182 12.3473C51.427 11.6844 52.9042 12.559 52.9042 13.9377V42.617C52.9042 43.2849 52.3628 43.8263 51.695 43.8263H44.7418C44.074 43.8263 43.5326 43.2849 43.5326 42.617Z" fill="white"/>
<path d="M51.6953 9.06058C50.1837 10.5721 44.7421 13.2929 43.8352 14.5022C38.0913 5.13053 48.9745 -1.52034 51.6953 1.20047C54.4161 3.92128 53.2068 7.54902 51.6953 9.06058Z" fill="#DE2320"/>
<path d="M55.322 43.524H62.2752C62.943 43.524 63.4844 42.9826 63.4844 42.3148V32.3108C63.4844 31.4135 64.6482 31.0611 65.146 31.8077L68.441 36.7502C68.9407 37.4997 70.0551 37.4593 70.4992 36.6756L72.974 32.3083C73.4334 31.4977 74.67 31.8237 74.67 32.7554V42.3148C74.67 42.9826 75.2114 43.524 75.8792 43.524H81.9668C82.6183 43.524 83.1527 43.0079 83.1753 42.3568L84.2787 10.6351C84.3144 9.60923 83.4924 8.75818 82.4659 8.75818H76.6583C75.9921 8.75818 75.3795 9.12342 75.0627 9.70952L70.5945 17.9757C70.1374 18.8214 68.924 18.8214 68.4669 17.9757L64.1701 10.0266C63.7477 9.24517 62.9308 8.75818 62.0425 8.75818H55.9266C54.9249 8.75818 54.1128 9.57028 54.1128 10.5721V42.3148C54.1128 42.9826 54.6542 43.524 55.322 43.524Z" fill="white"/>
<path d="M83.3991 25.268C84.1456 14.7342 90.0163 6.56788 96.5114 7.02779C103.007 7.48807 107.667 16.4009 106.921 26.935C106.174 37.469 100.303 45.6355 93.8082 45.1752C87.3131 44.7148 82.6526 35.802 83.3991 25.268ZM95.7487 17.7866C92.9175 17.5861 90.3582 21.146 90.0329 25.7377C89.7075 30.3292 91.739 34.2145 94.57 34.4155C97.4012 34.6161 99.9603 31.056 100.286 26.4643C100.611 21.8725 98.5799 17.9872 95.7487 17.7866Z" fill="white"/>
</svg>
